PathFileType	4	(X/Y/Z)	C:\Users\Basilio\Documents\Thesis Gigler\squatting_fais\c3dfiles\041\SLS_pre_front1\markers_experimental.trc
DataRate	CameraRate	NumFrames	NumMarkers	Units	OrigDataRate	OrigDataStartFrame	OrigNumFrames
200.000000	200.000000	4	62	mm	200.000000	189	1517
Frame#	Time	FHD			LBHD			RBHD			C7			T10			CLAV			LSHO			LUUPA			LMUPA			LDUPA			LLEP			LMEP			LRAD			LUL			LRFIN			RSHO			RUPA1			RMUPA			RDUPA			RLEP			RMEP			RRAD			RUL			RUFIN			LASI			RASI			USACR			LSACR			RSACR			LTHI1			LTHI2			LTHI3			LTHI4			LLFC			LMFC			LTIB1			LTIB2			LTIB3			LTIB4			LLMAL			LMMAL			LHEE			LMT1			LMT2			LMT5			RTHI			RTHI2			RTHI3			RTHI4			RLFC			RMFC			RTIB1			RTIB2			RTIB3			RTIB4			RLMAL			RMMAL			RHEE			RMT1			RMT2			RMT5			*61			
		X1	Y1	Z1	X2	Y2	Z2	X3	Y3	Z3	X4	Y4	Z4	X5	Y5	Z5	X6	Y6	Z6	X7	Y7	Z7	X8	Y8	Z8	X9	Y9	Z9	X10	Y10	Z10	X11	Y11	Z11	X12	Y12	Z12	X13	Y13	Z13	X14	Y14	Z14	X15	Y15	Z15	X16	Y16	Z16	X17	Y17	Z17	X18	Y18	Z18	X19	Y19	Z19	X20	Y20	Z20	X21	Y21	Z21	X22	Y22	Z22	X23	Y23	Z23	X24	Y24	Z24	X25	Y25	Z25	X26	Y26	Z26	X27	Y27	Z27	X28	Y28	Z28	X29	Y29	Z29	X30	Y30	Z30	X31	Y31	Z31	X32	Y32	Z32	X33	Y33	Z33	X34	Y34	Z34	X35	Y35	Z35	X36	Y36	Z36	X37	Y37	Z37	X38	Y38	Z38	X39	Y39	Z39	X40	Y40	Z40	X41	Y41	Z41	X42	Y42	Z42	X43	Y43	Z43	X44	Y44	Z44	X45	Y45	Z45	X46	Y46	Z46	X47	Y47	Z47	X48	Y48	Z48	X49	Y49	Z49	X50	Y50	Z50	X51	Y51	Z51	X52	Y52	Z52	X53	Y53	Z53	X54	Y54	Z54	X55	Y55	Z55	X56	Y56	Z56	X57	Y57	Z57	X58	Y58	Z58	X59	Y59	Z59	X60	Y60	Z60	X61	Y61	Z61	X62	Y62	Z62	

190	0.9450000000000001	-218.7599639892579	1764.830078125	-978.8146972656252	-403.863983154297	1712.354125976563	-1047.308471679688	-377.6244812011719	1714.090698242188	-895.7788085937502	-454.2625122070314	1555.293212890625	-979.2891235351565	-461.0857543945314	1237.457275390625	-962.1965942382815	-293.7979125976563	1499.401611328125	-987.2126464843752	-392.2213745117189	1552.545166015625	-1136.933837890625	-299.0778198242188	1464.426025390625	-1262.534790039063	-252.2553253173829	1468.773071289063	-1247.287231445313	-246.2827911376954	1437.361083984375	-1299.842163085938	-197.8261108398438	1416.733032226563	-1315.816162109375	-178.9924011230469	1347.386840820313	-1256.143310546875	-98.50587463378909	1539.193603515625	-1094.04638671875	-37.14190673828126	1503.692016601563	-1118.04150390625	-54.22324371337892	1590.52490234375	-1050.257568359375	-352.3199157714844	1548.547119140625	-818.4787597656252	-344.3663330078126	1350.144409179688	-701.6624755859376	-294.6005249023438	1353.637451171875	-705.6480712890626	-298.8113098144532	1300.533813476563	-680.9890747070314	-276.5871887207032	1261.085327148438	-670.0206298828126	-305.7085876464844	1216.640502929688	-743.0307006835939	-83.58396911621095	1090.066650390625	-741.2642211914064	-117.1642608642578	1058.766967773438	-679.5654296875001	-18.32530593872071	1046.54736328125	-730.6777954101564	-284.3469238281251	1058.865112304688	-1079.405639648438	-276.1325683593751	1058.629760742188	-850.4628906250002	-461.882781982422	1122.128784179688	-959.1175537109377	-476.5784912109376	1094.4287109375	-984.949645996094	-475.3475036621095	1097.274536132813	-930.9177856445315	-374.5415954589844	841.240173339844	-1141.535522460938	-329.4447326660157	769.6408691406252	-1136.624145507813	-283.6102600097657	779.8645019531252	-1127.698364257813	-349.6853027343751	713.2711181640626	-1127.302856445313	-309.3659057617188	538.5523681640626	-1112.07470703125	-305.7986450195313	520.7838745117189	-993.5198974609377	-294.4370117187501	345.7751159667969	-1055.986938476563	-341.6159362792969	306.7539367675782	-1121.767211914063	-306.3262939453126	299.6503601074219	-1093.593383789063	-317.6646728515626	222.8102569580079	-1061.8798828125	-382.8844604492188	135.9518737792969	-1104.227294921875	-346.7270812988282	138.5274200439453	-1022.010559082031	-450.3335876464845	118.5301971435547	-1063.887817382813	-243.0015411376954	64.1033172607422	-1037.968139648438	-237.3241271972657	59.56112289428712	-1083.014892578125	-285.8066101074219	46.50883483886719	-1136.2470703125	-374.9890136718751	796.9184570312502	-770.1740722656252	-332.6414794921876	746.8905029296876	-759.4614868164064	-299.3456726074219	751.8580322265626	-761.4694213867189	-350.8419189453126	664.9591674804689	-769.216979980469	-339.3971252441407	540.5493774414064	-758.3869018554689	-314.8815917968751	512.1500244140626	-872.5408935546877	-310.2619628906251	371.7348327636719	-752.0559692382814	-396.2279357910157	301.0071105957032	-734.0258789062501	-350.1670532226563	296.1476745605469	-732.6270141601564	-329.0039062500001	244.8419647216797	-756.7163696289064	-390.8715209960939	133.1432189941407	-735.7106323242189	-360.8409118652344	143.7580718994141	-814.1771240234377	-450.8676757812501	114.143798828125	-783.3972778320315	-244.8035888671876	57.64416503906251	-799.920104980469	-239.2652740478516	57.9080276489258	-747.5350952148439	-284.7381591796876	47.6878776550293	-697.3523559570314	-4216.797363281251	853.1060180664065	-3944.759765625001	
191	0.9500000000000001	-219.2938385009766	1764.91845703125	-979.3479614257815	-404.1399841308595	1712.368530273438	-1048.010375976563	-378.0062561035157	1714.108520507813	-896.4394531250002	-454.3812561035157	1555.179931640625	-980.0836181640627	-461.0540466308595	1237.42236328125	-963.176940917969	-293.8517456054688	1499.255737304688	-987.7149658203127	-392.2136230468751	1552.620239257813	-1137.742065429688	-299.9559936523438	1465.022216796875	-1264.312255859375	-253.1174926757813	1469.1884765625	-1249.462524414063	-247.4581909179688	1438.301147460938	-1302.02685546875	-199.0634765625001	1417.759765625	-1318.343994140625	-179.9228515625	1348.0927734375	-1259.538940429688	-94.74782562255861	1537.436889648438	-1097.197387695313	-33.41392898559571	1502.314697265625	-1123.434692382813	-49.08666229248048	1588.124877929688	-1054.219604492188	-352.8765258789063	1548.572265625	-819.2346191406252	-342.8776245117188	1350.580810546875	-702.5192260742189	-293.2511901855469	1354.974365234375	-706.3603515625001	-296.8551025390626	1301.740478515625	-681.3745727539064	-273.7315368652344	1262.591186523438	-670.5979614257814	-302.3117675781251	1217.564086914063	-743.5664672851564	-78.95387268066408	1093.383544921875	-741.2205810546876	-112.1836013793946	1062.109130859375	-679.6243286132814	-13.01492023468018	1051.090942382813	-730.5307617187501	-284.0741577148438	1059.026733398438	-1080.136108398438	-276.3008117675782	1058.708374023438	-850.9273681640627	-461.905975341797	1122.162109375	-960.0155029296877	-476.458465576172	1094.434814453125	-985.9483032226565	-475.1184692382814	1097.169677734375	-931.9502563476565	-374.2699890136719	841.2955322265627	-1142.263793945313	-329.2412414550782	769.6823730468752	-1137.158325195313	-283.4031677246094	779.8840332031252	-1128.177124023438	-349.4563598632813	713.2476196289064	-1127.788696289063	-309.3591308593751	538.5537109375001	-1112.480224609375	-306.0991210937501	520.7727661132814	-993.9304809570315	-294.4981689453126	345.7990417480469	-1056.158447265625	-341.6450500488282	306.7830505371094	-1121.853881835938	-306.3390808105469	299.6091003417969	-1093.711181640625	-317.8248901367188	222.7877197265626	-1061.991455078125	-382.8455505371094	135.9009094238282	-1104.2763671875	-346.8005371093751	138.5707092285157	-1022.052856445313	-450.3928527832032	118.571044921875	-1063.843505859375	-243.0701599121094	64.03128051757814	-1037.951782226563	-237.3240661621094	59.56097793579103	-1083.0146484375	-285.7972412109376	46.52043914794923	-1136.321655273438	-375.1994628906251	797.0151367187502	-770.7232666015627	-332.7819213867188	746.9288940429689	-759.9381713867189	-299.5211791992188	751.9093017578126	-761.8966674804689	-350.9035949707032	664.9533081054689	-769.7305297851565	-339.3638000488282	540.6582641601564	-758.8640136718751	-314.7551879882813	512.1626586914064	-872.8487548828127	-310.2913208007813	371.8251342773438	-752.2594604492189	-396.2981567382814	301.1586303710938	-734.2488403320314	-350.2517089843751	296.2767333984376	-732.7772827148439	-329.0063171386719	244.8874664306641	-756.8370361328126	-390.8343200683595	133.1859283447266	-735.7376708984376	-360.7930908203126	143.7537536621094	-814.245544433594	-450.8778686523439	114.1885299682617	-783.3970336914065	-244.7979736328126	57.64553833007814	-799.9151000976565	-239.2814483642579	57.59856414794923	-747.7902832031251	-284.7647399902344	47.71958160400391	-697.3394165039064	-4216.995117187501	853.1941528320315	-3944.576660156251	
192	0.9550000000000001	-219.6679687500001	1765.19677734375	-980.0388793945315	-404.3692321777345	1712.287719726563	-1048.590698242188	-378.4609680175782	1714.198974609375	-897.1190185546877	-454.5602416992189	1555.121948242188	-980.8421020507815	-461.0665893554689	1237.322021484375	-963.9968261718752	-294.0064086914063	1499.247192382813	-988.4312133789065	-392.2181396484376	1552.685913085938	-1138.640380859375	-300.5977783203126	1465.6064453125	-1265.981689453125	-253.6721496582032	1469.686157226563	-1251.271850585938	-248.4774475097657	1438.94189453125	-1304.169677734375	-200.2017517089844	1418.930053710938	-1321.085693359375	-180.9032745361328	1348.5810546875	-1262.737548828125	-90.52278137207033	1535.495483398438	-1100.557250976563	-29.95075225830079	1500.980224609375	-1128.912231445313	-44.02746200561524	1586.189208984375	-1058.442016601563	-353.2368164062501	1548.6669921875	-820.1724243164065	-341.4632263183594	1351.000244140625	-703.1172485351564	-291.9471435546876	1355.798217773438	-707.0068359375001	-294.7219238281251	1302.798217773438	-681.9175415039064	-270.9429016113282	1263.946655273438	-671.1821289062501	-299.0705566406251	1218.549682617188	-743.8997192382814	-74.15645599365236	1097.239135742188	-741.2055053710939	-106.8682022094727	1065.446166992188	-679.6858520507814	-7.772124767303469	1055.7099609375	-730.1516113281251	-283.8029479980469	1059.003295898438	-1080.62646484375	-276.4904479980469	1058.736206054688	-851.5042724609377	-461.9312744140626	1122.16259765625	-961.0058593750002	-476.3266906738282	1094.4267578125	-987.0000610351565	-475.104705810547	1097.177124023438	-932.8778076171877	-373.9104309082032	841.3854980468752	-1143.09619140625	-329.0123901367188	769.7213134765627	-1137.908813476563	-283.1736450195313	779.8702392578127	-1128.772216796875	-349.4528503417969	713.2614135742189	-1128.417236328125	-309.3239746093751	538.6058349609376	-1112.933471679688	-306.2611999511719	520.9113159179689	-994.3132934570315	-294.5546569824219	345.7802124023438	-1056.323608398438	-341.6988525390626	306.7753295898438	-1122.056274414063	-306.4351196289063	299.4873046875001	-1093.859985351563	-318.0018615722657	222.7538299560547	-1062.076049804688	-382.8905639648438	135.8586578369141	-1104.349243164063	-346.8248901367188	138.543930053711	-1022.112609863281	-450.3723144531251	118.5414352416992	-1063.894165039063	-243.0415191650391	64.02808380126955	-1037.989990234375	-237.308090209961	59.50645446777345	-1082.981323242188	-285.7316284179688	46.51094055175782	-1136.2919921875	-375.4226989746094	797.089050292969	-771.3853759765627	-333.0297851562501	746.8840332031251	-760.3626708984376	-299.6693115234376	751.8251342773439	-762.4329833984376	-350.9183654785157	665.0295410156251	-770.3356933593752	-339.5482788085938	540.7517089843751	-759.0507812500001	-314.7203369140626	512.1770629882814	-873.203308105469	-310.3239440917969	372.0123291015626	-752.5054321289064	-396.4071044921876	301.2238464355469	-734.3731689453126	-350.3672485351563	296.3779296875001	-732.9863891601564	-329.0117492675782	244.9159088134766	-756.9760742187501	-390.8515625000001	133.276107788086	-735.7937011718751	-360.7481079101563	143.7926025390625	-814.2623291015627	-450.9015197753907	114.2528991699219	-783.4583740234377	-244.8341064453126	57.64825439453126	-799.9617309570315	-239.240951538086	57.90895462036134	-747.6149902343751	-284.7535400390626	47.75500106811524	-697.3795776367189	-4217.027343750001	853.209899902344	-3944.766113281251	
193	0.96	-220.2927856445313	1765.456298828125	-980.767272949219	-404.9772338867189	1712.357299804688	-1049.326416015625	-378.9962158203126	1714.1416015625	-897.7208251953127	-454.7366027832032	1555.014038085938	-981.607360839844	-461.1287536621095	1237.373168945313	-964.943298339844	-294.0318298339844	1499.300659179688	-989.4371337890627	-392.3265686035157	1552.726806640625	-1139.609008789063	-301.6315307617188	1466.285400390625	-1267.594116210938	-254.4869537353516	1470.0888671875	-1253.190063476563	-249.4514160156251	1439.7890625	-1306.292114257813	-201.6524963378907	1420.052612304688	-1323.533325195313	-181.8025207519532	1349.54931640625	-1265.846801757813	-86.22603607177736	1533.514526367188	-1103.942016601563	-25.96343421936036	1499.674194335938	-1134.819580078125	-38.62471389770509	1583.845947265625	-1062.712280273438	-353.6148986816407	1548.666870117188	-820.9313964843752	-339.7875671386719	1351.4619140625	-703.9959106445314	-290.5118103027344	1357.156616210938	-707.3753051757814	-292.6704711914063	1303.990600585938	-682.3881835937501	-268.4718322753907	1265.603637695313	-671.2437133789064	-295.7344360351563	1219.689086914063	-744.2708740234376	-69.10555267333986	1101.164184570313	-741.1094360351564	-102.0050964355469	1068.897338867188	-679.6419067382814	-2.418564796447754	1060.447265625	-729.9871215820314	-283.7051696777344	1059.02880859375	-1081.157104492188	-276.6030578613282	1058.689208984375	-852.0614013671877	-461.7684326171876	1122.1435546875	-962.0261230468752	-476.2515563964845	1094.504272460938	-987.8554687500002	-475.1719970703126	1097.131591796875	-933.8712158203127	-373.6286621093751	841.4045410156252	-1143.756103515625	-328.8093566894532	769.7647094726565	-1138.517333984375	-283.0116882324219	779.7960205078127	-1129.342529296875	-349.3829650878907	713.3666381835939	-1129.083251953125	-309.3636169433594	538.5405883789064	-1113.258056640625	-306.4286193847657	520.9948120117189	-994.512634277344	-294.6908264160157	345.7541503906251	-1056.58984375	-341.5898132324219	306.8068847656251	-1122.193359375	-306.4662475585938	299.4673767089844	-1093.983642578125	-318.0482482910157	222.701644897461	-1062.184692382813	-382.8965148925782	135.8529815673828	-1104.358642578125	-346.8653564453126	138.5532379150391	-1022.144958496094	-450.365447998047	118.5724868774414	-1063.922607421875	-243.0870971679688	63.96264648437501	-1037.93798828125	-237.3293151855469	59.482723236084	-1083.018676757813	-285.7441101074219	46.4643898010254	-1136.31787109375	-375.4301757812501	797.1440429687502	-772.0930786132815	-333.2498779296876	746.9620971679689	-760.8925781250001	-299.7358398437501	751.8244628906251	-763.0804443359376	-351.0233154296876	664.9328613281251	-770.6809692382815	-339.4983520507813	540.8610229492189	-759.6146240234376	-314.6034851074219	512.1661376953126	-873.6085205078127	-310.2778015136719	372.1795349121094	-752.8093261718751	-396.4663085937501	301.3953857421876	-734.6557617187501	-350.3829956054688	296.4578552246094	-733.2385253906251	-329.0591125488282	244.9793395996094	-757.0253906250001	-390.8107910156251	133.3385467529297	-735.8572998046876	-360.7494201660157	143.8369445800782	-814.3040161132815	-450.8977661132814	114.2471008300782	-783.446960449219	-244.8329772949219	57.56394195556642	-799.9678344726565	-239.2295379638672	57.89211654663087	-747.5794677734376	-284.7601928710938	47.76054763793946	-697.3934936523439	-4216.703613281251	853.109558105469	-3944.812011718751	
